<?xml version="1.0" encoding="iso-8859-1"?>
<!-- Generator: Adobe Illustrator 18.0.0, SVG Export Plug-In . SVG Version: 6.00 Build 0)  -->
<!DOCTYPE svg PUBLIC "-//W3C//DTD SVG 1.1//EN" "http://www.w3.org/Graphics/SVG/1.1/DTD/svg11.dtd">
<svg version="1.1" id="Capa_1" xmlns="http://www.w3.org/2000/svg" xmlns:xlink="http://www.w3.org/1999/xlink" x="0px" y="0px"
	 viewBox="0 0 493.149 493.149" style="enable-background:new 0 0 493.149 493.149;" xml:space="preserve">
<g id="XMLID_176_">
	<path id="XMLID_179_" d="M134.637,59.363L6.133,113.511C2.417,115.076,0,118.72,0,122.749v303.226c0,3.354,1.686,6.493,4.478,8.347
		c2.8,1.854,6.34,2.192,9.438,0.883l128.504-54.155c3.717-1.565,6.133-5.209,6.133-9.238V68.594c0-3.354-1.686-6.493-4.479-8.348
		C141.275,58.385,137.735,58.056,134.637,59.363z"/>
	<path id="XMLID_178_" d="M313.852,98.236L185.34,57.622c-3.042-0.964-6.365-0.418-8.942,1.468c-2.575,1.886-4.1,4.888-4.1,8.083
		v303.956c0,4.375,2.831,8.244,6.997,9.56l128.514,40.607c3.042,0.963,6.365,0.417,8.94-1.469c2.578-1.886,4.103-4.888,4.103-8.082
		V107.796C320.852,103.422,318.017,99.553,313.852,98.236z"/>
	<path id="XMLID_177_" d="M489.047,59.091c-2.575-1.886-5.898-2.432-8.94-1.468L351.593,98.236
		c-4.166,1.317-6.998,5.186-6.998,9.561v303.948c0,3.194,1.524,6.196,4.1,8.082c2.578,1.886,5.901,2.432,8.943,1.469l128.511-40.607
		c4.166-1.316,7-5.185,7-9.56V67.173C493.149,63.979,491.625,60.977,489.047,59.091z"/>
</g>
<g>
</g>
<g>
</g>
<g>
</g>
<g>
</g>
<g>
</g>
<g>
</g>
<g>
</g>
<g>
</g>
<g>
</g>
<g>
</g>
<g>
</g>
<g>
</g>
<g>
</g>
<g>
</g>
<g>
</g>
</svg>
