<?xml version="1.0" encoding="iso-8859-1"?>
<!-- Generator: Adobe Illustrator 18.0.0, SVG Export Plug-In . SVG Version: 6.00 Build 0)  -->
<!DOCTYPE svg PUBLIC "-//W3C//DTD SVG 1.1//EN" "http://www.w3.org/Graphics/SVG/1.1/DTD/svg11.dtd">
<svg version="1.1" id="Capa_1" xmlns="http://www.w3.org/2000/svg" xmlns:xlink="http://www.w3.org/1999/xlink" x="0px" y="0px"
	 viewBox="0 0 496.899 496.899" style="enable-background:new 0 0 496.899 496.899;" xml:space="preserve">
<path id="XMLID_155_" d="M411.628,0H85.272C65.538,0,49.528,16.003,49.528,35.745v293.202c0,19.742,16.01,35.743,35.744,35.743
	h70.143l76.848,123.226c3.479,5.584,9.6,8.984,16.188,8.984c6.589,0,12.706-3.4,16.188-8.984l76.845-123.226h70.145
	c19.732,0,35.743-16.001,35.743-35.743V35.745C447.371,16.003,431.36,0,411.628,0z M371.368,146.286
	c-1.084,3.221-4.112,5.391-7.512,5.391h-19.943v144.157c0,4.387-3.545,7.94-7.916,7.94H160.905c-4.371,0-7.916-3.553-7.916-7.94
	V151.677h-19.945c-3.398,0-6.426-2.17-7.51-5.391c-1.087-3.229,0-6.783,2.686-8.847l45.004-34.384V74.151
	c0-3.19,2.59-5.788,5.796-5.788h25.302c3.189,0,5.795,2.598,5.795,5.788v0.728l31.52-24.104c4.031-3.061,9.6-3.061,13.631,0
	l113.414,86.663C371.368,139.502,372.452,143.057,371.368,146.286z"/>
<g>
</g>
<g>
</g>
<g>
</g>
<g>
</g>
<g>
</g>
<g>
</g>
<g>
</g>
<g>
</g>
<g>
</g>
<g>
</g>
<g>
</g>
<g>
</g>
<g>
</g>
<g>
</g>
<g>
</g>
</svg>
