<?xml version="1.0" encoding="iso-8859-1"?>
<!-- Generator: Adobe Illustrator 18.0.0, SVG Export Plug-In . SVG Version: 6.00 Build 0)  -->
<!DOCTYPE svg PUBLIC "-//W3C//DTD SVG 1.1//EN" "http://www.w3.org/Graphics/SVG/1.1/DTD/svg11.dtd">
<svg version="1.1" id="Capa_1" xmlns="http://www.w3.org/2000/svg" xmlns:xlink="http://www.w3.org/1999/xlink" x="0px" y="0px"
	 viewBox="0 0 495.648 495.648" style="enable-background:new 0 0 495.648 495.648;" xml:space="preserve">
<g id="XMLID_192_">
	<path id="XMLID_194_" d="M458.456,50.395H227.885c-20.528,0-37.193,16.655-37.193,37.201v54.287h77.056
		c38.796,0,70.343,31.555,70.343,70.333v60.781l83.254,47.095c1.52,0.865,3.413,0.679,4.74-0.453
		c1.342-1.132,1.813-2.976,1.214-4.618l-23.005-61.955h54.163c20.53,0,37.192-16.655,37.192-37.202V87.596
		C495.648,67.051,478.986,50.395,458.456,50.395z"/>
	<path id="XMLID_193_" d="M267.747,175.014H37.211C16.665,175.014,0,191.671,0,212.216v128.268
		c0,20.547,16.665,37.202,37.211,37.202h54.148L68.354,439.64c-0.598,1.641-0.131,3.485,1.212,4.618
		c0.778,0.655,1.733,0.995,2.704,0.995c0.693,0,1.391-0.177,2.038-0.542l118.487-67.025h74.952c20.548,0,37.21-16.655,37.21-37.202
		V212.216C304.957,191.671,288.295,175.014,267.747,175.014z"/>
</g>
<g>
</g>
<g>
</g>
<g>
</g>
<g>
</g>
<g>
</g>
<g>
</g>
<g>
</g>
<g>
</g>
<g>
</g>
<g>
</g>
<g>
</g>
<g>
</g>
<g>
</g>
<g>
</g>
<g>
</g>
</svg>
