<?xml version="1.0" encoding="iso-8859-1"?>
<!-- Generator: Adobe Illustrator 18.0.0, SVG Export Plug-In . SVG Version: 6.00 Build 0)  -->
<!DOCTYPE svg PUBLIC "-//W3C//DTD SVG 1.1//EN" "http://www.w3.org/Graphics/SVG/1.1/DTD/svg11.dtd">
<svg version="1.1" id="Capa_1" xmlns="http://www.w3.org/2000/svg" xmlns:xlink="http://www.w3.org/1999/xlink" x="0px" y="0px"
	 viewBox="0 0 492.551 492.551" style="enable-background:new 0 0 492.551 492.551;" xml:space="preserve">
<g id="XMLID_54_">
	<path id="XMLID_57_" d="M469.977,80.044h-34.891v45.15c0,22.671-18.375,41.046-41.046,41.046
		c-22.673,0-41.046-18.374-41.046-41.046v-45.15H139.555v45.15c0,22.671-18.373,41.046-41.047,41.046
		c-22.67,0-41.047-18.374-41.047-41.046v-45.15H22.572C10.115,80.044,0,90.153,0,102.626v335.19
		c0,12.474,10.115,22.583,22.572,22.583h447.404c12.457,0,22.574-10.109,22.574-22.583v-335.19
		C492.551,90.153,482.434,80.044,469.977,80.044z M123.827,365.32c0,1.884-1.524,3.416-3.418,3.416H76.623
		c-1.891,0-3.416-1.532-3.416-3.416v-43.788c0-1.892,1.525-3.423,3.416-3.423h43.786c1.893,0,3.418,1.531,3.418,3.423V365.32z
		 M123.827,266.81c0,1.884-1.524,3.415-3.418,3.415H76.623c-1.891,0-3.416-1.531-3.416-3.415v-43.788
		c0-1.891,1.525-3.422,3.416-3.422h43.786c1.893,0,3.418,1.531,3.418,3.422V266.81z M368.738,223.022
		c0-1.891,1.523-3.422,3.415-3.422h43.789c1.892,0,3.413,1.531,3.413,3.422v43.788c0,1.884-1.521,3.415-3.413,3.415h-43.789
		c-1.892,0-3.415-1.531-3.415-3.415V223.022z M222.337,365.32c0,1.884-1.524,3.416-3.417,3.416h-43.786
		c-1.894,0-3.416-1.532-3.416-3.416v-43.788c0-1.892,1.522-3.423,3.416-3.423h43.786c1.893,0,3.417,1.531,3.417,3.423V365.32z
		 M222.337,266.81c0,1.884-1.524,3.415-3.417,3.415h-43.786c-1.894,0-3.416-1.531-3.416-3.415v-43.788
		c0-1.891,1.522-3.422,3.416-3.422h43.786c1.893,0,3.417,1.531,3.417,3.422V266.81z M320.846,365.32
		c0,1.884-1.522,3.416-3.414,3.416h-43.789c-1.892,0-3.414-1.532-3.414-3.416v-43.788c0-1.892,1.523-3.423,3.414-3.423h43.789
		c1.892,0,3.414,1.531,3.414,3.423V365.32z M320.846,266.81c0,1.884-1.522,3.415-3.414,3.415h-43.789
		c-1.892,0-3.414-1.531-3.414-3.415v-43.788c0-1.891,1.523-3.422,3.414-3.422h43.789c1.892,0,3.414,1.531,3.414,3.422V266.81z
		 M435.438,407.714c-11.512-12.563-22.365-25.663-32.963-38.977h-6.031c-10.869,9.507-21.579,19.184-31.489,29.742
		c-7.262,7.727-18.854-3.905-11.608-11.609c5.949-6.334,12.169-12.378,18.537-18.246c-1.751-0.168-3.145-1.522-3.145-3.303v-41.166
		c-3.511-4.85-7.055-9.684-10.518-14.559c-6.156-8.649,8.098-16.835,14.174-8.29c4.006,5.628,8.08,11.216,12.138,16.804h31.41
		c1.892,0,3.413,1.531,3.413,3.423v5.412c3.674-3.263,7.377-6.478,10.953-9.853c7.693-7.264,19.318,4.329,11.608,11.609
		c-7.346,6.927-14.927,13.581-22.561,20.171v14.775c8.947,11.054,18.071,21.958,27.691,32.459
		C454.182,403.897,442.605,415.538,435.438,407.714z"/>
	<path id="XMLID_56_" d="M98.508,149.821c13.598,0,24.628-11.023,24.628-24.627V56.78c0-13.605-11.03-24.628-24.628-24.628
		c-13.595,0-24.627,11.023-24.627,24.628v68.414C73.881,138.798,84.913,149.821,98.508,149.821z"/>
	<path id="XMLID_55_" d="M394.04,149.821c13.595,0,24.628-11.023,24.628-24.627V56.78c0-13.605-11.033-24.628-24.628-24.628
		c-13.599,0-24.628,11.023-24.628,24.628v68.414C369.412,138.798,380.441,149.821,394.04,149.821z"/>
</g>
<g>
</g>
<g>
</g>
<g>
</g>
<g>
</g>
<g>
</g>
<g>
</g>
<g>
</g>
<g>
</g>
<g>
</g>
<g>
</g>
<g>
</g>
<g>
</g>
<g>
</g>
<g>
</g>
<g>
</g>
</svg>
